{
  "asset": {
    "version": "2.0",
    "generator": "3dpea GLTFExporter"
  },
  "scenes": [
    {
      "name": "AuxScene",
      "nodes": [
        4
      ]
    }
  ],
  "scene": 0,
  "nodes": [
    {
      "name": "Circle001-Mesh",
      "mesh": 0
    },
    {
      "name": "Circle001-Mesh_1",
      "mesh": 1
    },
    {
      "name": "Circle001-Mesh_2",
      "mesh": 2
    },
    {
      "name": "Circle001",
      "extras": {
        "name": "Circle.001"
      },
      "children": [
        0,
        1,
        2
      ]
    },
    {
      "name": "can3",
      "extras": {
        "nowCenter": true
      },
      "children": [
        3
      ]
    }
  ],
  "bufferViews": [
    {
      "buffer": 0,
      "byteOffset": 0,
      "byteLength": 4836,
      "target": 34962,
      "byteStride": 12
    },
    {
      "buffer": 0,
      "byteOffset": 4836,
      "byteLength": 4836,
      "target": 34962,
      "byteStride": 12
    },
    {
      "buffer": 0,
      "byteOffset": 9672,
      "byteLength": 1488,
      "target": 34963
    },
    {
      "buffer": 0,
      "byteOffset": 11160,
      "byteLength": 1152,
      "target": 34962,
      "byteStride": 12
    },
    {
      "buffer": 0,
      "byteOffset": 12312,
      "byteLength": 1152,
      "target": 34962,
      "byteStride": 12
    },
    {
      "buffer": 0,
      "byteOffset": 13464,
      "byteLength": 288,
      "target": 34963
    },
    {
      "buffer": 0,
      "byteOffset": 13752,
      "byteLength": 384,
      "target": 34962,
      "byteStride": 12
    },
    {
      "buffer": 0,
      "byteOffset": 14136,
      "byteLength": 384,
      "target": 34962,
      "byteStride": 12
    },
    {
      "buffer": 0,
      "byteOffset": 14520,
      "byteLength": 96,
      "target": 34963
    }
  ],
  "buffers": [
    {
      "byteLength": 14616,
      "uri": "data:application/octet-stream;base64,"
    }
  ],
  "accessors": [
    {
      "bufferView": 0,
      "componentType": 5126,
      "count": 403,
      "max": [
        3.0567619800567627,
        10.058300018310547,
        3.0567619800567627
      ],
      "min": [
        -3.0567619800567627,
        0,
        -3.0567619800567627
      ],
      "type": "VEC3"
    },
    {
      "bufferView": 1,
      "componentType": 5126,
      "count": 403,
      "max": [
        1,
        1,
        1
      ],
      "min": [
        -1,
        -1,
        -0.9981490969657898
      ],
      "type": "VEC3"
    },
    {
      "bufferView": 2,
      "componentType": 5123,
      "count": 744,
      "max": [
        402
      ],
      "min": [
        0
      ],
      "type": "SCALAR"
    },
    {
      "bufferView": 3,
      "componentType": 5126,
      "count": 96,
      "max": [
        3.0567619800567627,
        9.729140281677246,
        3.0567619800567627
      ],
      "min": [
        -3.0567619800567627,
        0.3744710087776184,
        -3.0567619800567627
      ],
      "type": "VEC3"
    },
    {
      "bufferView": 4,
      "componentType": 5126,
      "count": 96,
      "max": [
        0.9238766431808472,
        0.46419593691825867,
        0.9238766431808472
      ],
      "min": [
        -0.9238766431808472,
        0,
        -0.9238766431808472
      ],
      "type": "VEC3"
    },
    {
      "bufferView": 5,
      "componentType": 5123,
      "count": 144,
      "max": [
        95
      ],
      "min": [
        0
      ],
      "type": "SCALAR"
    },
    {
      "bufferView": 6,
      "componentType": 5126,
      "count": 32,
      "max": [
        3.0567619800567627,
        5.9309868812561035,
        3.0567619800567627
      ],
      "min": [
        -3.0567619800567627,
        3.152729034423828,
        -3.0567619800567627
      ],
      "type": "VEC3"
    },
    {
      "bufferView": 7,
      "componentType": 5126,
      "count": 32,
      "max": [
        0.9238766431808472,
        0,
        0.9238766431808472
      ],
      "min": [
        -0.9238766431808472,
        0,
        -0.9238766431808472
      ],
      "type": "VEC3"
    },
    {
      "bufferView": 8,
      "componentType": 5123,
      "count": 48,
      "max": [
        31
      ],
      "min": [
        0
      ],
      "type": "SCALAR"
    }
  ],
  "materials": [
    {
      "pbrMetallicRoughness": {
        "baseColorFactor": [
          0.1912016827303171,
          0.2788942634659966,
          0.34191442489801843,
          1
        ],
        "metallicFactor": 0,
        "roughnessFactor": 0.903921569
      },
      "name": "78909C"
    },
    {
      "pbrMetallicRoughness": {
        "baseColorFactor": [
          0.91,
          0.05,
          0.03,
          1
        ],
        "metallicFactor": 0,
        "roughnessFactor": 0.903921569
      },
      "name": "F44336"
    },
    {
      "pbrMetallicRoughness": {
        "metallicFactor": 0,
        "roughnessFactor": 0.903921569
      },
      "name": "FFFFFF"
    }
  ],
  "meshes": [
    {
      "primitives": [
        {
          "mode": 4,
          "attributes": {
            "POSITION": 0,
            "NORMAL": 1
          },
          "indices": 2,
          "material": 0
        }
      ]
    },
    {
      "primitives": [
        {
          "mode": 4,
          "attributes": {
            "POSITION": 3,
            "NORMAL": 4
          },
          "indices": 5,
          "material": 1
        }
      ]
    },
    {
      "primitives": [
        {
          "mode": 4,
          "attributes": {
            "POSITION": 6,
            "NORMAL": 7
          },
          "indices": 8,
          "material": 2
        }
      ]
    }
  ]
}