{
  "asset": {
    "version": "2.0",
    "generator": "3dpea GLTFExporter"
  },
  "scenes": [
    {
      "name": "AuxScene",
      "nodes": [
        5
      ]
    }
  ],
  "scene": 0,
  "nodes": [
    {
      "name": "sodaCanCrushed_1",
      "mesh": 0
    },
    {
      "name": "sodaCanCrushed_1_1",
      "mesh": 1
    },
    {
      "name": "sodaCanCrushed_1_2",
      "mesh": 2
    },
    {
      "name": "sodaCanCrushed_1_3",
      "mesh": 3
    },
    {
      "name": "sodaCanCrushed",
      "extras": {
        "name": "sodaCanCrushed"
      },
      "children": [
        0,
        1,
        2,
        3
      ]
    },
    {
      "name": "crushedCan2",
      "children": [
        4
      ]
    }
  ],
  "bufferViews": [
    {
      "buffer": 0,
      "byteOffset": 0,
      "byteLength": 1572,
      "target": 34962,
      "byteStride": 12
    },
    {
      "buffer": 0,
      "byteOffset": 1572,
      "byteLength": 1572,
      "target": 34962,
      "byteStride": 12
    },
    {
      "buffer": 0,
      "byteOffset": 3144,
      "byteLength": 1048,
      "target": 34962,
      "byteStride": 8
    },
    {
      "buffer": 0,
      "byteOffset": 4192,
      "byteLength": 488,
      "target": 34963
    },
    {
      "buffer": 0,
      "byteOffset": 4680,
      "byteLength": 1020,
      "target": 34962,
      "byteStride": 12
    },
    {
      "buffer": 0,
      "byteOffset": 5700,
      "byteLength": 1020,
      "target": 34962,
      "byteStride": 12
    },
    {
      "buffer": 0,
      "byteOffset": 6720,
      "byteLength": 680,
      "target": 34962,
      "byteStride": 8
    },
    {
      "buffer": 0,
      "byteOffset": 7400,
      "byteLength": 308,
      "target": 34963
    },
    {
      "buffer": 0,
      "byteOffset": 7708,
      "byteLength": 48,
      "target": 34962,
      "byteStride": 12
    },
    {
      "buffer": 0,
      "byteOffset": 7756,
      "byteLength": 48,
      "target": 34962,
      "byteStride": 12
    },
    {
      "buffer": 0,
      "byteOffset": 7804,
      "byteLength": 32,
      "target": 34962,
      "byteStride": 8
    },
    {
      "buffer": 0,
      "byteOffset": 7836,
      "byteLength": 12,
      "target": 34963
    },
    {
      "buffer": 0,
      "byteOffset": 7848,
      "byteLength": 1536,
      "target": 34962,
      "byteStride": 12
    },
    {
      "buffer": 0,
      "byteOffset": 9384,
      "byteLength": 1536,
      "target": 34962,
      "byteStride": 12
    },
    {
      "buffer": 0,
      "byteOffset": 10920,
      "byteLength": 1024,
      "target": 34962,
      "byteStride": 8
    },
    {
      "buffer": 0,
      "byteOffset": 11944,
      "byteLength": 384,
      "target": 34963
    }
  ],
  "buffers": [
    {
      "byteLength": 12328,
      "uri": "data:application/octet-stream;base64,"
    }
  ],
  "accessors": [
    {
      "bufferView": 0,
      "componentType": 5126,
      "count": 131,
      "max": [
        0.09996479749679565,
        0.1599999964237213,
        0.09996479749679565
      ],
      "min": [
        -0.09996479749679565,
        0,
        -0.09996479749679565
      ],
      "type": "VEC3"
    },
    {
      "bufferView": 1,
      "componentType": 5126,
      "count": 131,
      "max": [
        1,
        1,
        1
      ],
      "min": [
        -1,
        -1,
        -1
      ],
      "type": "VEC3"
    },
    {
      "bufferView": 2,
      "componentType": 5126,
      "count": 131,
      "max": [
        3.935621976852417,
        4.935622215270996
      ],
      "min": [
        -3.935621976852417,
        -5.515874862670898
      ],
      "type": "VEC2"
    },
    {
      "bufferView": 3,
      "componentType": 5123,
      "count": 243,
      "max": [
        130
      ],
      "min": [
        0
      ],
      "type": "SCALAR"
    },
    {
      "bufferView": 4,
      "componentType": 5126,
      "count": 85,
      "max": [
        0.11231999844312668,
        0.15000000596046448,
        0.11231999844312668
      ],
      "min": [
        -0.11231999844312668,
        0.009999999776482582,
        -0.11231999844312668
      ],
      "type": "VEC3"
    },
    {
      "bufferView": 5,
      "componentType": 5126,
      "count": 85,
      "max": [
        0.9246535897254944,
        1,
        0.9246535897254944
      ],
      "min": [
        -0.9246535897254944,
        -0.6833580732345581,
        -0.9246535897254944
      ],
      "type": "VEC3"
    },
    {
      "bufferView": 6,
      "componentType": 5126,
      "count": 85,
      "max": [
        2.782905101776123,
        3.782905101776123
      ],
      "min": [
        -2.782905101776123,
        -2.8584680557250977
      ],
      "type": "VEC2"
    },
    {
      "bufferView": 7,
      "componentType": 5123,
      "count": 153,
      "max": [
        84
      ],
      "min": [
        0
      ],
      "type": "SCALAR"
    },
    {
      "bufferView": 8,
      "componentType": 5126,
      "count": 4,
      "max": [
        -0.01828848011791706,
        0.15000000596046448,
        0.014792519621551037
      ],
      "min": [
        -0.04828847944736481,
        0.15000000596046448,
        -0.014792519621551037
      ],
      "type": "VEC3"
    },
    {
      "bufferView": 9,
      "componentType": 5126,
      "count": 4,
      "max": [
        0,
        1,
        0
      ],
      "min": [
        0,
        1,
        0
      ],
      "type": "VEC3"
    },
    {
      "bufferView": 10,
      "componentType": 5126,
      "count": 4,
      "max": [
        1.9011210203170776,
        1.5823826789855957
      ],
      "min": [
        0.7200189828872681,
        0.4176172912120819
      ],
      "type": "VEC2"
    },
    {
      "bufferView": 11,
      "componentType": 5123,
      "count": 6,
      "max": [
        3
      ],
      "min": [
        0
      ],
      "type": "SCALAR"
    },
    {
      "bufferView": 12,
      "componentType": 5126,
      "count": 128,
      "max": [
        0.12355200201272964,
        0.10999999940395355,
        0.12355200201272964
      ],
      "min": [
        -0.12355200201272964,
        0.029999999329447746,
        -0.12355200201272964
      ],
      "type": "VEC3"
    },
    {
      "bufferView": 13,
      "componentType": 5126,
      "count": 128,
      "max": [
        0.8719106316566467,
        0.48966503143310547,
        0.8719106316566467
      ],
      "min": [
        -0.8719106316566467,
        -0.48966503143310547,
        -0.8719106316566467
      ],
      "type": "VEC3"
    },
    {
      "bufferView": 14,
      "componentType": 5126,
      "count": 128,
      "max": [
        1.861469030380249,
        1.3223907947540283
      ],
      "min": [
        -1.861469030380249,
        -4.214860916137695
      ],
      "type": "VEC2"
    },
    {
      "bufferView": 15,
      "componentType": 5123,
      "count": 192,
      "max": [
        127
      ],
      "min": [
        0
      ],
      "type": "SCALAR"
    }
  ],
  "materials": [
    {
      "pbrMetallicRoughness": {
        "baseColorFactor": [
          0.2501582847191642,
          0.3277780980458375,
          0.41254261347374327,
          1
        ],
        "metallicFactor": 0,
        "roughnessFactor": 1
      },
      "name": "greyDark"
    },
    {
      "pbrMetallicRoughness": {
        "baseColorFactor": [
          0.69,
          0.8,
          0.9,
          1
        ],
        "metallicFactor": 0,
        "roughnessFactor": 1
      },
      "name": "greyLight"
    },
    {
      "pbrMetallicRoughness": {
        "baseColorFactor": [
          0.05,
          0.02,
          0.01,
          1
        ],
        "metallicFactor": 0,
        "roughnessFactor": 1
      },
      "name": "brownDarkest"
    },
    {
      "pbrMetallicRoughness": {
        "baseColorFactor": [
          0.81,
          0.09,
          0.08,
          1
        ],
        "metallicFactor": 0,
        "roughnessFactor": 1
      },
      "name": "red"
    }
  ],
  "meshes": [
    {
      "primitives": [
        {
          "mode": 4,
          "attributes": {
            "POSITION": 0,
            "NORMAL": 1,
            "TEXCOORD_0": 2
          },
          "indices": 3,
          "material": 0
        }
      ]
    },
    {
      "primitives": [
        {
          "mode": 4,
          "attributes": {
            "POSITION": 4,
            "NORMAL": 5,
            "TEXCOORD_0": 6
          },
          "indices": 7,
          "material": 1
        }
      ]
    },
    {
      "primitives": [
        {
          "mode": 4,
          "attributes": {
            "POSITION": 8,
            "NORMAL": 9,
            "TEXCOORD_0": 10
          },
          "indices": 11,
          "material": 2
        }
      ]
    },
    {
      "primitives": [
        {
          "mode": 4,
          "attributes": {
            "POSITION": 12,
            "NORMAL": 13,
            "TEXCOORD_0": 14
          },
          "indices": 15,
          "material": 3
        }
      ]
    }
  ]
}