{
  "asset": {
    "version": "2.0",
    "generator": "3dpea GLTFExporter"
  },
  "scenes": [
    {
      "name": "AuxScene",
      "nodes": [
        6
      ]
    }
  ],
  "scene": 0,
  "nodes": [
    {
      "name": "Scifi_Crate_1",
      "mesh": 0
    },
    {
      "name": "Scifi_Crate_2",
      "mesh": 1
    },
    {
      "name": "Scifi_Crate_3",
      "mesh": 2
    },
    {
      "name": "Scifi_Crate_4",
      "mesh": 3
    },
    {
      "matrix": [
        100,
        0,
        0,
        0,
        0,
        99.9999999999999,
        0.0000043711388286738005,
        0,
        0,
        -0.0000043711388286738005,
        99.9999999999999,
        0,
        0,
        0,
        0,
        1
      ],
      "name": "Scifi_Crate",
      "extras": {
        "name": "Scifi Crate"
      },
      "children": [
        0,
        1,
        2,
        3
      ]
    },
    {
      "name": "RootNode",
      "extras": {
        "name": "RootNode"
      },
      "children": [
        4
      ]
    },
    {
      "name": "crate2",
      "children": [
        5
      ]
    }
  ],
  "bufferViews": [
    {
      "buffer": 0,
      "byteOffset": 0,
      "byteLength": 4104,
      "target": 34962,
      "byteStride": 12
    },
    {
      "buffer": 0,
      "byteOffset": 4104,
      "byteLength": 4104,
      "target": 34962,
      "byteStride": 12
    },
    {
      "buffer": 0,
      "byteOffset": 8208,
      "byteLength": 2736,
      "target": 34962,
      "byteStride": 8
    },
    {
      "buffer": 0,
      "byteOffset": 10944,
      "byteLength": 1044,
      "target": 34963
    },
    {
      "buffer": 0,
      "byteOffset": 11988,
      "byteLength": 9168,
      "target": 34962,
      "byteStride": 12
    },
    {
      "buffer": 0,
      "byteOffset": 21156,
      "byteLength": 9168,
      "target": 34962,
      "byteStride": 12
    },
    {
      "buffer": 0,
      "byteOffset": 30324,
      "byteLength": 6112,
      "target": 34962,
      "byteStride": 8
    },
    {
      "buffer": 0,
      "byteOffset": 36436,
      "byteLength": 2592,
      "target": 34963
    },
    {
      "buffer": 0,
      "byteOffset": 39028,
      "byteLength": 276,
      "target": 34962,
      "byteStride": 12
    },
    {
      "buffer": 0,
      "byteOffset": 39304,
      "byteLength": 276,
      "target": 34962,
      "byteStride": 12
    },
    {
      "buffer": 0,
      "byteOffset": 39580,
      "byteLength": 184,
      "target": 34962,
      "byteStride": 8
    },
    {
      "buffer": 0,
      "byteOffset": 39764,
      "byteLength": 80,
      "target": 34963
    },
    {
      "buffer": 0,
      "byteOffset": 39844,
      "byteLength": 324,
      "target": 34962,
      "byteStride": 12
    },
    {
      "buffer": 0,
      "byteOffset": 40168,
      "byteLength": 324,
      "target": 34962,
      "byteStride": 12
    },
    {
      "buffer": 0,
      "byteOffset": 40492,
      "byteLength": 216,
      "target": 34962,
      "byteStride": 8
    },
    {
      "buffer": 0,
      "byteOffset": 40708,
      "byteLength": 68,
      "target": 34963
    }
  ],
  "buffers": [
    {
      "byteLength": 40776,
      "uri": "data:application/octet-stream;base64,"
    }
  ],
  "accessors": [
    {
      "bufferView": 0,
      "componentType": 5126,
      "count": 342,
      "max": [
        0.9998456239700317,
        0.9999832510948181,
        0.9999895095825195
      ],
      "min": [
        -0.9998456239700317,
        -0.9998244047164917,
        -0.9999895095825195
      ],
      "type": "VEC3"
    },
    {
      "bufferView": 1,
      "componentType": 5126,
      "count": 342,
      "max": [
        0.0020197234116494656,
        0.0020884694531559944,
        0.001517646131105721
      ],
      "min": [
        -0.002051855204626918,
        -0.00197769096121192,
        -0.0018762716790661216
      ],
      "type": "VEC3"
    },
    {
      "bufferView": 2,
      "componentType": 5126,
      "count": 342,
      "max": [
        0.12513969838619232,
        1.1626728773117065
      ],
      "min": [
        -0.09966708719730377,
        0.9598692655563354
      ],
      "type": "VEC2"
    },
    {
      "bufferView": 3,
      "componentType": 5123,
      "count": 522,
      "max": [
        341
      ],
      "min": [
        0
      ],
      "type": "SCALAR"
    },
    {
      "bufferView": 4,
      "componentType": 5126,
      "count": 764,
      "max": [
        0.9999902844429016,
        0.9999840259552002,
        0.9999985098838806
      ],
      "min": [
        -0.9999902844429016,
        -0.9999831914901733,
        -0.9999909996986389
      ],
      "type": "VEC3"
    },
    {
      "bufferView": 5,
      "componentType": 5126,
      "count": 764,
      "max": [
        0.0020917318761348724,
        0.0020884694531559944,
        0.0019041916821151972
      ],
      "min": [
        -0.002108520595356822,
        -0.0016715119127184153,
        -0.002287143375724554
      ],
      "type": "VEC3"
    },
    {
      "bufferView": 6,
      "componentType": 5126,
      "count": 764,
      "max": [
        0.11974559724330902,
        1.1587276458740234
      ],
      "min": [
        -0.12421359866857529,
        0.942257821559906
      ],
      "type": "VEC2"
    },
    {
      "bufferView": 7,
      "componentType": 5123,
      "count": 1296,
      "max": [
        763
      ],
      "min": [
        0
      ],
      "type": "SCALAR"
    },
    {
      "bufferView": 8,
      "componentType": 5126,
      "count": 23,
      "max": [
        0.9999790787696838,
        0.5812968015670776,
        0.5772791504859924
      ],
      "min": [
        -0.7533911466598511,
        -0.6575692296028137,
        -0.5808147192001343
      ],
      "type": "VEC3"
    },
    {
      "bufferView": 9,
      "componentType": 5126,
      "count": 23,
      "max": [
        0.0020917318761348724,
        -0.00006646277324762195,
        0.0014055451611056924
      ],
      "min": [
        -0.0008102634456008673,
        -0.0014708044473081827,
        -0.0022838758304715157
      ],
      "type": "VEC3"
    },
    {
      "bufferView": 10,
      "componentType": 5126,
      "count": 23,
      "max": [
        0.10276349633932114,
        1.1534032821655273
      ],
      "min": [
        0.02018662914633751,
        1.0901724100112915
      ],
      "type": "VEC2"
    },
    {
      "bufferView": 11,
      "componentType": 5123,
      "count": 39,
      "max": [
        22
      ],
      "min": [
        0
      ],
      "type": "SCALAR"
    },
    {
      "bufferView": 12,
      "componentType": 5126,
      "count": 27,
      "max": [
        0.5745335817337036,
        0.5812968015670776,
        0.9999908804893494
      ],
      "min": [
        -0.8941608667373657,
        -0.7394170761108398,
        -0.9999908804893494
      ],
      "type": "VEC3"
    },
    {
      "bufferView": 13,
      "componentType": 5126,
      "count": 27,
      "max": [
        0.0007969818543642759,
        0.0012397821992635727,
        -0.0019292780198156834
      ],
      "min": [
        -0.0008376243058592081,
        -0.0010893878061324358,
        -0.0022838758304715157
      ],
      "type": "VEC3"
    },
    {
      "bufferView": 14,
      "componentType": 5126,
      "count": 27,
      "max": [
        0.09914197027683258,
        1.1063528060913086
      ],
      "min": [
        -0.10276349633932114,
        1
      ],
      "type": "VEC2"
    },
    {
      "bufferView": 15,
      "componentType": 5123,
      "count": 33,
      "max": [
        26
      ],
      "min": [
        0
      ],
      "type": "SCALAR"
    }
  ],
  "materials": [
    {
      "pbrMetallicRoughness": {
        "baseColorFactor": [
          0.059511238155621766,
          0.09989872823822872,
          0.13013647668074665,
          1
        ],
        "metallicFactor": 0.400000005960464,
        "roughnessFactor": 1
      },
      "name": "mat17"
    },
    {
      "pbrMetallicRoughness": {
        "baseColorFactor": [
          0.189999997615814,
          0.280000001192093,
          0.340000003576279,
          1
        ],
        "metallicFactor": 0.400000005960464,
        "roughnessFactor": 1
      },
      "name": "mat16"
    },
    {
      "pbrMetallicRoughness": {
        "baseColorFactor": [
          1,
          0.829999983310699,
          0.0399999991059303,
          1
        ],
        "metallicFactor": 0.400000005960464,
        "roughnessFactor": 1
      },
      "name": "mat12"
    },
    {
      "pbrMetallicRoughness": {
        "baseColorFactor": [
          0.829999983310699,
          0.889999985694885,
          0.870000004768372,
          0.482000023126602
        ],
        "metallicFactor": 0.400000005960464,
        "roughnessFactor": 0.237915471196175
      },
      "alphaMode": "BLEND",
      "name": "mat24"
    }
  ],
  "meshes": [
    {
      "primitives": [
        {
          "mode": 4,
          "attributes": {
            "NORMAL": 0,
            "POSITION": 1,
            "TEXCOORD_0": 2
          },
          "indices": 3,
          "material": 0
        }
      ]
    },
    {
      "primitives": [
        {
          "mode": 4,
          "attributes": {
            "NORMAL": 4,
            "POSITION": 5,
            "TEXCOORD_0": 6
          },
          "indices": 7,
          "material": 1
        }
      ]
    },
    {
      "primitives": [
        {
          "mode": 4,
          "attributes": {
            "NORMAL": 8,
            "POSITION": 9,
            "TEXCOORD_0": 10
          },
          "indices": 11,
          "material": 2
        }
      ]
    },
    {
      "primitives": [
        {
          "mode": 4,
          "attributes": {
            "NORMAL": 12,
            "POSITION": 13,
            "TEXCOORD_0": 14
          },
          "indices": 15,
          "material": 3
        }
      ]
    }
  ]
}