{
  "asset": {
    "version": "2.0",
    "generator": "3dpea GLTFExporter"
  },
  "scenes": [
    {
      "name": "AuxScene",
      "nodes": [
        7
      ]
    }
  ],
  "scene": 0,
  "nodes": [
    {
      "name": "Props_Crate_1",
      "mesh": 0
    },
    {
      "name": "Props_Crate_2",
      "mesh": 1
    },
    {
      "name": "Props_Crate_3",
      "mesh": 2
    },
    {
      "name": "Props_Crate_4",
      "mesh": 3
    },
    {
      "name": "Props_Crate_5",
      "mesh": 4
    },
    {
      "matrix": [
        100,
        0,
        0,
        0,
        0,
        99.9999999999999,
        0.0000043711388286738005,
        0,
        0,
        -0.0000043711388286738005,
        99.9999999999999,
        0,
        0,
        0,
        0,
        1
      ],
      "name": "Props_Crate",
      "extras": {
        "name": "Props_Crate"
      },
      "children": [
        0,
        1,
        2,
        3,
        4
      ]
    },
    {
      "name": "RootNode",
      "extras": {
        "name": "RootNode"
      },
      "children": [
        5
      ]
    },
    {
      "name": "crate",
      "children": [
        6
      ]
    }
  ],
  "bufferViews": [
    {
      "buffer": 0,
      "byteOffset": 0,
      "byteLength": 19968,
      "target": 34962,
      "byteStride": 12
    },
    {
      "buffer": 0,
      "byteOffset": 19968,
      "byteLength": 19968,
      "target": 34962,
      "byteStride": 12
    },
    {
      "buffer": 0,
      "byteOffset": 39936,
      "byteLength": 6264,
      "target": 34963
    },
    {
      "buffer": 0,
      "byteOffset": 46200,
      "byteLength": 8544,
      "target": 34962,
      "byteStride": 12
    },
    {
      "buffer": 0,
      "byteOffset": 54744,
      "byteLength": 8544,
      "target": 34962,
      "byteStride": 12
    },
    {
      "buffer": 0,
      "byteOffset": 63288,
      "byteLength": 2256,
      "target": 34963
    },
    {
      "buffer": 0,
      "byteOffset": 65544,
      "byteLength": 1056,
      "target": 34962,
      "byteStride": 12
    },
    {
      "buffer": 0,
      "byteOffset": 66600,
      "byteLength": 1056,
      "target": 34962,
      "byteStride": 12
    },
    {
      "buffer": 0,
      "byteOffset": 67656,
      "byteLength": 288,
      "target": 34963
    },
    {
      "buffer": 0,
      "byteOffset": 67944,
      "byteLength": 768,
      "target": 34962,
      "byteStride": 12
    },
    {
      "buffer": 0,
      "byteOffset": 68712,
      "byteLength": 768,
      "target": 34962,
      "byteStride": 12
    },
    {
      "buffer": 0,
      "byteOffset": 69480,
      "byteLength": 312,
      "target": 34963
    },
    {
      "buffer": 0,
      "byteOffset": 69792,
      "byteLength": 28032,
      "target": 34962,
      "byteStride": 12
    },
    {
      "buffer": 0,
      "byteOffset": 97824,
      "byteLength": 28032,
      "target": 34962,
      "byteStride": 12
    },
    {
      "buffer": 0,
      "byteOffset": 125856,
      "byteLength": 7008,
      "target": 34963
    }
  ],
  "buffers": [
    {
      "byteLength": 132864,
      "uri": "data:application/octet-stream;base64,"
    }
  ],
  "accessors": [
    {
      "bufferView": 0,
      "componentType": 5126,
      "count": 1664,
      "max": [
        1,
        1,
        1
      ],
      "min": [
        -1,
        -1,
        -1
      ],
      "type": "VEC3"
    },
    {
      "bufferView": 1,
      "componentType": 5126,
      "count": 1664,
      "max": [
        0.0039855847135186195,
        0.007980011403560638,
        0.0039855847135186195
      ],
      "min": [
        -0.0039855847135186195,
        0.000008841075214149896,
        -0.0039855861105024815
      ],
      "type": "VEC3"
    },
    {
      "bufferView": 2,
      "componentType": 5123,
      "count": 3132,
      "max": [
        1663
      ],
      "min": [
        0
      ],
      "type": "SCALAR"
    },
    {
      "bufferView": 3,
      "componentType": 5126,
      "count": 712,
      "max": [
        1,
        1,
        1
      ],
      "min": [
        -1,
        -1,
        -1
      ],
      "type": "VEC3"
    },
    {
      "bufferView": 4,
      "componentType": 5126,
      "count": 712,
      "max": [
        0.003902432508766651,
        0.007865122519433498,
        0.0039024571888148785
      ],
      "min": [
        -0.003902432508766651,
        0.0001237297838088125,
        -0.003902409691363573
      ],
      "type": "VEC3"
    },
    {
      "bufferView": 5,
      "componentType": 5123,
      "count": 1128,
      "max": [
        711
      ],
      "min": [
        0
      ],
      "type": "SCALAR"
    },
    {
      "bufferView": 6,
      "componentType": 5126,
      "count": 88,
      "max": [
        0.7143333554267883,
        0.8923594951629639,
        0.7071069478988647
      ],
      "min": [
        -0.7143332958221436,
        -0.89235919713974,
        -0.6998062133789062
      ],
      "type": "VEC3"
    },
    {
      "bufferView": 7,
      "componentType": 5126,
      "count": 88,
      "max": [
        0.003717726795002818,
        0.005959519650787115,
        0.003717963118106127
      ],
      "min": [
        -0.003717726795002818,
        0.0020293325651437044,
        -0.0037174911703914404
      ],
      "type": "VEC3"
    },
    {
      "bufferView": 8,
      "componentType": 5123,
      "count": 144,
      "max": [
        87
      ],
      "min": [
        0
      ],
      "type": "SCALAR"
    },
    {
      "bufferView": 9,
      "componentType": 5126,
      "count": 64,
      "max": [
        1,
        1,
        1
      ],
      "min": [
        -1,
        -1,
        -1
      ],
      "type": "VEC3"
    },
    {
      "bufferView": 10,
      "componentType": 5126,
      "count": 64,
      "max": [
        0.0033815621864050627,
        0.007695455569773912,
        0.0033815621864050627
      ],
      "min": [
        -0.0033815631177276373,
        0.0002933968207798898,
        -0.003381563350558281
      ],
      "type": "VEC3"
    },
    {
      "bufferView": 11,
      "componentType": 5123,
      "count": 156,
      "max": [
        63
      ],
      "min": [
        0
      ],
      "type": "SCALAR"
    },
    {
      "bufferView": 12,
      "componentType": 5126,
      "count": 2336,
      "max": [
        1,
        1,
        1
      ],
      "min": [
        -1,
        -1,
        -1
      ],
      "type": "VEC3"
    },
    {
      "bufferView": 13,
      "componentType": 5126,
      "count": 2336,
      "max": [
        0.003596047405153513,
        0.008022167719900608,
        0.003596047405153513
      ],
      "min": [
        -0.0035960483364760876,
        -0.000033315351174678653,
        -0.0035960485693067312
      ],
      "type": "VEC3"
    },
    {
      "bufferView": 14,
      "componentType": 5123,
      "count": 3504,
      "max": [
        2335
      ],
      "min": [
        0
      ],
      "type": "SCALAR"
    }
  ],
  "materials": [
    {
      "pbrMetallicRoughness": {
        "baseColorFactor": [
          0.4019777798219466,
          0.4019777798219466,
          0.4019777798219466,
          1
        ],
        "metallicFactor": 0.400000005960464,
        "roughnessFactor": 1
      },
      "name": "Main"
    },
    {
      "pbrMetallicRoughness": {
        "baseColorFactor": [
          0.558340728282928,
          0.296138226985931,
          0.0666259974241257,
          1
        ],
        "metallicFactor": 0.400000005960464,
        "roughnessFactor": 1
      },
      "name": "Accent"
    },
    {
      "pbrMetallicRoughness": {
        "baseColorFactor": [
          0.239547312259674,
          0.239547312259674,
          0.239547312259674,
          1
        ],
        "metallicFactor": 0.400000005960464,
        "roughnessFactor": 1
      },
      "name": "DarkGrey"
    },
    {
      "pbrMetallicRoughness": {
        "baseColorFactor": [
          0.0420254841446877,
          0.0420254841446877,
          0.0420254841446877,
          1
        ],
        "metallicFactor": 0.400000005960464,
        "roughnessFactor": 1
      },
      "name": "Black"
    },
    {
      "pbrMetallicRoughness": {
        "baseColorFactor": [
          0.226578950881958,
          0.123378187417984,
          0.030147360637784,
          1
        ],
        "metallicFactor": 0.400000005960464,
        "roughnessFactor": 1
      },
      "name": "DarkAccent"
    }
  ],
  "meshes": [
    {
      "primitives": [
        {
          "mode": 4,
          "attributes": {
            "NORMAL": 0,
            "POSITION": 1
          },
          "indices": 2,
          "material": 0
        }
      ]
    },
    {
      "primitives": [
        {
          "mode": 4,
          "attributes": {
            "NORMAL": 3,
            "POSITION": 4
          },
          "indices": 5,
          "material": 1
        }
      ]
    },
    {
      "primitives": [
        {
          "mode": 4,
          "attributes": {
            "NORMAL": 6,
            "POSITION": 7
          },
          "indices": 8,
          "material": 2
        }
      ]
    },
    {
      "primitives": [
        {
          "mode": 4,
          "attributes": {
            "NORMAL": 9,
            "POSITION": 10
          },
          "indices": 11,
          "material": 3
        }
      ]
    },
    {
      "primitives": [
        {
          "mode": 4,
          "attributes": {
            "NORMAL": 12,
            "POSITION": 13
          },
          "indices": 14,
          "material": 4
        }
      ]
    }
  ]
}