{
  "asset": {
    "version": "2.0",
    "generator": "3dpea GLTFExporter"
  },
  "scenes": [
    {
      "name": "AuxScene",
      "nodes": [
        6
      ]
    }
  ],
  "scene": 0,
  "nodes": [
    {
      "name": "Grenade_1",
      "mesh": 0
    },
    {
      "name": "Grenade_2",
      "mesh": 1
    },
    {
      "name": "Grenade_3",
      "mesh": 2
    },
    {
      "name": "Grenade_4",
      "mesh": 3
    },
    {
      "matrix": [
        100,
        0,
        0,
        0,
        0,
        -0.000013435885581891682,
        -99.99999657714513,
        0,
        0,
        99.99999657714513,
        -0.000013435885581891682,
        0,
        0,
        0,
        0,
        1
      ],
      "name": "Grenade",
      "extras": {
        "name": "Grenade"
      },
      "children": [
        0,
        1,
        2,
        3
      ]
    },
    {
      "name": "RootNode",
      "extras": {
        "name": "RootNode"
      },
      "children": [
        4
      ]
    },
    {
      "name": "grenade",
      "children": [
        5
      ]
    }
  ],
  "bufferViews": [
    {
      "buffer": 0,
      "byteOffset": 0,
      "byteLength": 2316,
      "target": 34962,
      "byteStride": 12
    },
    {
      "buffer": 0,
      "byteOffset": 2316,
      "byteLength": 2316,
      "target": 34962,
      "byteStride": 12
    },
    {
      "buffer": 0,
      "byteOffset": 4632,
      "byteLength": 1260,
      "target": 34963
    },
    {
      "buffer": 0,
      "byteOffset": 5892,
      "byteLength": 5196,
      "target": 34962,
      "byteStride": 12
    },
    {
      "buffer": 0,
      "byteOffset": 11088,
      "byteLength": 5196,
      "target": 34962,
      "byteStride": 12
    },
    {
      "buffer": 0,
      "byteOffset": 16284,
      "byteLength": 2484,
      "target": 34963
    },
    {
      "buffer": 0,
      "byteOffset": 18768,
      "byteLength": 1872,
      "target": 34962,
      "byteStride": 12
    },
    {
      "buffer": 0,
      "byteOffset": 20640,
      "byteLength": 1872,
      "target": 34962,
      "byteStride": 12
    },
    {
      "buffer": 0,
      "byteOffset": 22512,
      "byteLength": 924,
      "target": 34963
    },
    {
      "buffer": 0,
      "byteOffset": 23436,
      "byteLength": 1488,
      "target": 34962,
      "byteStride": 12
    },
    {
      "buffer": 0,
      "byteOffset": 24924,
      "byteLength": 1488,
      "target": 34962,
      "byteStride": 12
    },
    {
      "buffer": 0,
      "byteOffset": 26412,
      "byteLength": 636,
      "target": 34963
    }
  ],
  "buffers": [
    {
      "byteLength": 27048,
      "uri": "data:application/octet-stream;base64,"
    }
  ],
  "accessors": [
    {
      "bufferView": 0,
      "componentType": 5126,
      "count": 193,
      "max": [
        1,
        1,
        0.8794593214988708
      ],
      "min": [
        -1,
        -1,
        -1
      ],
      "type": "VEC3"
    },
    {
      "bufferView": 1,
      "componentType": 5126,
      "count": 193,
      "max": [
        0.0006875076214782894,
        0.0006875076214782894,
        0.0007146828575059772
      ],
      "min": [
        -0.0007794252596795559,
        -0.0006875076214782894,
        -0.001555663300678134
      ],
      "type": "VEC3"
    },
    {
      "bufferView": 2,
      "componentType": 5123,
      "count": 630,
      "max": [
        192
      ],
      "min": [
        0
      ],
      "type": "SCALAR"
    },
    {
      "bufferView": 3,
      "componentType": 5126,
      "count": 433,
      "max": [
        1,
        1,
        1
      ],
      "min": [
        -1,
        -1,
        -1
      ],
      "type": "VEC3"
    },
    {
      "bufferView": 4,
      "componentType": 5126,
      "count": 433,
      "max": [
        0.0008566142641939223,
        0.0006133958813734353,
        0.0014772091526538134
      ],
      "min": [
        -0.0009283644612878561,
        -0.0006133958813734353,
        -0.0008171054068952799
      ],
      "type": "VEC3"
    },
    {
      "bufferView": 5,
      "componentType": 5123,
      "count": 1242,
      "max": [
        432
      ],
      "min": [
        0
      ],
      "type": "SCALAR"
    },
    {
      "bufferView": 6,
      "componentType": 5126,
      "count": 156,
      "max": [
        1,
        1,
        1
      ],
      "min": [
        -1,
        -1,
        -1
      ],
      "type": "VEC3"
    },
    {
      "bufferView": 7,
      "componentType": 5126,
      "count": 156,
      "max": [
        0.0007233655778691173,
        0.0007233655778691173,
        0.0014557946706190705
      ],
      "min": [
        -0.0008746262174099684,
        -0.0007233655778691173,
        0.0006375254597514868
      ],
      "type": "VEC3"
    },
    {
      "bufferView": 8,
      "componentType": 5123,
      "count": 462,
      "max": [
        155
      ],
      "min": [
        0
      ],
      "type": "SCALAR"
    },
    {
      "bufferView": 9,
      "componentType": 5126,
      "count": 124,
      "max": [
        1,
        1,
        0.9994545578956604
      ],
      "min": [
        -1,
        -1,
        -1
      ],
      "type": "VEC3"
    },
    {
      "bufferView": 10,
      "componentType": 5126,
      "count": 124,
      "max": [
        0.0008129371562972665,
        0.0006725309649482369,
        0.0011859252117574215
      ],
      "min": [
        -0.0004914499586448073,
        -0.0006725309649482369,
        -0.0013281878782436252
      ],
      "type": "VEC3"
    },
    {
      "bufferView": 11,
      "componentType": 5123,
      "count": 318,
      "max": [
        123
      ],
      "min": [
        0
      ],
      "type": "SCALAR"
    }
  ],
  "materials": [
    {
      "pbrMetallicRoughness": {
        "baseColorFactor": [
          0.36625259558833256,
          0.36625259558833256,
          0.36625259558833256,
          1
        ],
        "metallicFactor": 0.400000005960464,
        "roughnessFactor": 0.415087103843689
      },
      "name": "White"
    },
    {
      "pbrMetallicRoughness": {
        "baseColorFactor": [
          0.0819771513342857,
          0.0819771513342857,
          0.0819771513342857,
          1
        ],
        "metallicFactor": 0.400000005960464,
        "roughnessFactor": 0.415087103843689
      },
      "name": "Grey"
    },
    {
      "pbrMetallicRoughness": {
        "baseColorFactor": [
          0.0232786145061255,
          0.0232786145061255,
          0.0232786145061255,
          1
        ],
        "metallicFactor": 0.400000005960464,
        "roughnessFactor": 0.415087103843689
      },
      "name": "Black"
    },
    {
      "pbrMetallicRoughness": {
        "baseColorFactor": [
          0.492138117551804,
          0.169017240405083,
          0.0228924620896578,
          1
        ],
        "metallicFactor": 0.400000005960464,
        "roughnessFactor": 0.415087103843689
      },
      "name": "Main"
    }
  ],
  "meshes": [
    {
      "primitives": [
        {
          "mode": 4,
          "attributes": {
            "NORMAL": 0,
            "POSITION": 1
          },
          "indices": 2,
          "material": 0
        }
      ]
    },
    {
      "primitives": [
        {
          "mode": 4,
          "attributes": {
            "NORMAL": 3,
            "POSITION": 4
          },
          "indices": 5,
          "material": 1
        }
      ]
    },
    {
      "primitives": [
        {
          "mode": 4,
          "attributes": {
            "NORMAL": 6,
            "POSITION": 7
          },
          "indices": 8,
          "material": 2
        }
      ]
    },
    {
      "primitives": [
        {
          "mode": 4,
          "attributes": {
            "NORMAL": 9,
            "POSITION": 10
          },
          "indices": 11,
          "material": 3
        }
      ]
    }
  ]
}