{"accessors" : [{"bufferView" : 0, "byteOffset" : 0, "componentType" : 5123, "count" : 48, "type" : "SCALAR", "max" : [29], "min" : [0]}, {"bufferView" : 1, "byteOffset" : 0, "componentType" : 5126, "count" : 30, "type" : "VEC3", "max" : [0.027982890605926514, 0.05926657095551491, 0.17882749438285828], "min" : [-0.0520172081887722, -0.3275907039642334, -0.19428770244121552], "name" : "POSITION"}, {"bufferView" : 1, "byteOffset" : 12, "componentType" : 5126, "count" : 30, "type" : "VEC3", "max" : [1.0000044107437134, 1.0000044107437134, 0.9993030428886414], "min" : [-1.0000044107437134, -0.8671947121620178, -0.9974052906036377], "name" : "NORMAL"}, {"bufferView" : 1, "byteOffset" : 24, "componentType" : 5126, "count" : 30, "type" : "VEC2", "max" : [0.13500769436359406, 2.0355472564697266], "min" : [-0.1289445012807846, 1.8461577892303467], "name" : "TEXCOORD_0"}, {"bufferView" : 0, "byteOffset" : 96, "componentType" : 5123, "count" : 132, "type" : "SCALAR", "max" : [101], "min" : [0]}, {"bufferView" : 2, "byteOffset" : 0, "componentType" : 5126, "count" : 102, "type" : "VEC3", "max" : [0.014065800234675407, 0.22048009932041168, 0.12806439399719238], "min" : [-0.036973919719457626, 0.0400998592376709, -0.1315833032131195], "name" : "POSITION"}, {"bufferView" : 2, "byteOffset" : 12, "componentType" : 5126, "count" : 102, "type" : "VEC3", "max" : [0.9997616410255432, 0.9998189210891724, 0.9975661635398865], "min" : [-0.9995323419570923, -0.9998189210891724, -0.9972837567329407], "name" : "NORMAL"}, {"bufferView" : 2, "byteOffset" : 24, "componentType" : 5126, "count" : 102, "type" : "VEC2", "max" : [0.1473114937543869, 2.0348072052001953], "min" : [-0.14305420219898224, 1.8373961448669434], "name" : "TEXCOORD_0"}, {"bufferView" : 0, "byteOffset" : 360, "componentType" : 5123, "count" : 120, "type" : "SCALAR", "max" : [75], "min" : [0]}, {"bufferView" : 3, "byteOffset" : 0, "componentType" : 5126, "count" : 76, "type" : "VEC3", "max" : [0.03848851099610329, -0.06766033172607422, 0.021167339757084846], "min" : [0.010026659816503525, -0.2072737067937851, -0.01669245958328247], "name" : "POSITION"}, {"bufferView" : 3, "byteOffset" : 12, "componentType" : 5126, "count" : 76, "type" : "VEC3", "max" : [0.9998719692230225, 0.9367848634719849, 0.9994850158691406], "min" : [-0.9998719692230225, -0.9367844462394714, -0.9970648288726807], "name" : "NORMAL"}, {"bufferView" : 3, "byteOffset" : 24, "componentType" : 5126, "count" : 76, "type" : "VEC2", "max" : [0.12881650030612946, 2.0253071784973145], "min" : [-0.12761889398097992, 1.8669140338897705], "name" : "TEXCOORD_0"}], "asset" : {"generator" : "Aspose.3D 24.4.1", "version" : "2.0"}, "buffers" : [{"uri" : "data:application/octet-stream;base64,", "byteLength" : 7272}], "bufferViews" : [{"buffer" : 0, "byteOffset" : 0, "byteLength" : 600, "target" : 34963}, {"buffer" : 0, "byteOffset" : 604, "byteLength" : 960, "byteStride" : 32, "target" : 34962}, {"buffer" : 0, "byteOffset" : 1568, "byteLength" : 3264, "byteStride" : 32, "target" : 34962}, {"buffer" : 0, "byteOffset" : 4836, "byteLength" : 2432, "byteStride" : 32, "target" : 34962}], "materials" : [{"name" : "mat16", "pbrMetallicRoughness" : {"baseColorFactor" : [0.19, 0.28, 0.34, 1], "metallicFactor" : 0, "roughnessFactor" : 1}, "emissiveFactor" : [0, 0, 0], "alphaMode" : "OPAQUE", "doubleSided" : false}, {"name" : "mat15", "pbrMetallicRoughness" : {"baseColorFactor" : [0.63, 0.7, 0.72, 1], "metallicFactor" : 0, "roughnessFactor" : 1}, "emissiveFactor" : [0, 0, 0], "alphaMode" : "OPAQUE", "doubleSided" : false}, {"name" : "mat17", "pbrMetallicRoughness" : {"baseColorFactor" : [0.06, 0.1, 0.13, 1], "metallicFactor" : 0, "roughnessFactor" : 1}, "emissiveFactor" : [0, 0, 0], "alphaMode" : "OPAQUE", "doubleSided" : false}], "meshes" : [{"primitives" : [{"attributes" : {"POSITION" : 1, "NORMAL" : 2, "TEXCOORD_0" : 3}, "indices" : 0, "material" : 0, "mode" : 4}]}, {"primitives" : [{"attributes" : {"POSITION" : 5, "NORMAL" : 6, "TEXCOORD_0" : 7}, "indices" : 4, "material" : 1, "mode" : 4}]}, {"primitives" : [{"attributes" : {"POSITION" : 9, "NORMAL" : 10, "TEXCOORD_0" : 11}, "indices" : 8, "material" : 2, "mode" : 4}]}], "nodes" : [{"mesh" : 0, "name" : "group331019317"}, {"mesh" : 1, "name" : "group871613733"}, {"mesh" : 2, "name" : "group1013003272"}], "scene" : 0, "scenes" : [{"nodes" : [0, 1, 2]}]}