{
  "asset": {
    "version": "2.0",
    "generator": "3dpea GLTFExporter"
  },
  "scenes": [
    {
      "name": "AuxScene",
      "nodes": [
        6
      ]
    }
  ],
  "scene": 0,
  "nodes": [
    {
      "name": "AR_6_1",
      "mesh": 0
    },
    {
      "name": "AR_6_2",
      "mesh": 1
    },
    {
      "name": "AR_6_3",
      "mesh": 2
    },
    {
      "name": "AR_6_4",
      "mesh": 3
    },
    {
      "matrix": [
        100,
        0,
        0,
        0,
        0,
        -0.000013435885581891682,
        -99.99999657714513,
        0,
        0,
        99.99999657714513,
        -0.000013435885581891682,
        0,
        0,
        0,
        0,
        1
      ],
      "name": "AR_6",
      "extras": {
        "name": "AR_6"
      },
      "children": [
        0,
        1,
        2,
        3
      ]
    },
    {
      "name": "RootNode",
      "extras": {
        "name": "RootNode"
      },
      "children": [
        4
      ]
    },
    {
      "name": "mediumGun",
      "extras": {
        "nowCenter": true
      },
      "children": [
        5
      ]
    }
  ],
  "bufferViews": [
    {
      "buffer": 0,
      "byteOffset": 0,
      "byteLength": 2712,
      "target": 34962,
      "byteStride": 12
    },
    {
      "buffer": 0,
      "byteOffset": 2712,
      "byteLength": 2712,
      "target": 34962,
      "byteStride": 12
    },
    {
      "buffer": 0,
      "byteOffset": 5424,
      "byteLength": 1332,
      "target": 34963
    },
    {
      "buffer": 0,
      "byteOffset": 6756,
      "byteLength": 25596,
      "target": 34962,
      "byteStride": 12
    },
    {
      "buffer": 0,
      "byteOffset": 32352,
      "byteLength": 25596,
      "target": 34962,
      "byteStride": 12
    },
    {
      "buffer": 0,
      "byteOffset": 57948,
      "byteLength": 17996,
      "target": 34963
    },
    {
      "buffer": 0,
      "byteOffset": 75944,
      "byteLength": 4824,
      "target": 34962,
      "byteStride": 12
    },
    {
      "buffer": 0,
      "byteOffset": 80768,
      "byteLength": 4824,
      "target": 34962,
      "byteStride": 12
    },
    {
      "buffer": 0,
      "byteOffset": 85592,
      "byteLength": 2808,
      "target": 34963
    },
    {
      "buffer": 0,
      "byteOffset": 88400,
      "byteLength": 4896,
      "target": 34962,
      "byteStride": 12
    },
    {
      "buffer": 0,
      "byteOffset": 93296,
      "byteLength": 4896,
      "target": 34962,
      "byteStride": 12
    },
    {
      "buffer": 0,
      "byteOffset": 98192,
      "byteLength": 2412,
      "target": 34963
    }
  ],
  "buffers": [
    {
      "byteLength": 100604,
      "uri": "data:application/octet-stream;base64,"
    }
  ],
  "accessors": [
    {
      "bufferView": 0,
      "componentType": 5126,
      "count": 226,
      "max": [
        1,
        1,
        1
      ],
      "min": [
        -1,
        -1,
        -1
      ],
      "type": "VEC3"
    },
    {
      "bufferView": 1,
      "componentType": 5126,
      "count": 226,
      "max": [
        0.007356727495789528,
        0.000599678372964263,
        0.0033574842382222414
      ],
      "min": [
        -0.00818120501935482,
        -0.0005996786057949066,
        -0.0007241711136884987
      ],
      "type": "VEC3"
    },
    {
      "bufferView": 2,
      "componentType": 5123,
      "count": 666,
      "max": [
        225
      ],
      "min": [
        0
      ],
      "type": "SCALAR"
    },
    {
      "bufferView": 3,
      "componentType": 5126,
      "count": 2133,
      "max": [
        1,
        1,
        1
      ],
      "min": [
        -1,
        -1,
        -1
      ],
      "type": "VEC3"
    },
    {
      "bufferView": 4,
      "componentType": 5126,
      "count": 2133,
      "max": [
        0.007628549821674824,
        0.0006921524181962013,
        0.0034738185349851847
      ],
      "min": [
        -0.010017448104918003,
        -0.0006921525928191841,
        -0.00143020274117589
      ],
      "type": "VEC3"
    },
    {
      "bufferView": 5,
      "componentType": 5123,
      "count": 8997,
      "max": [
        2132
      ],
      "min": [
        0
      ],
      "type": "SCALAR"
    },
    {
      "bufferView": 6,
      "componentType": 5126,
      "count": 402,
      "max": [
        1,
        1,
        1
      ],
      "min": [
        -1,
        -1,
        -1
      ],
      "type": "VEC3"
    },
    {
      "bufferView": 7,
      "componentType": 5126,
      "count": 402,
      "max": [
        0.006488688290119171,
        0.0006849283818155527,
        0.0035048204008489847
      ],
      "min": [
        -0.00818120501935482,
        -0.0006849286728538573,
        -0.0005664765485562384
      ],
      "type": "VEC3"
    },
    {
      "bufferView": 8,
      "componentType": 5123,
      "count": 1404,
      "max": [
        401
      ],
      "min": [
        0
      ],
      "type": "SCALAR"
    },
    {
      "bufferView": 9,
      "componentType": 5126,
      "count": 408,
      "max": [
        1,
        1,
        1
      ],
      "min": [
        -1,
        -1,
        -1
      ],
      "type": "VEC3"
    },
    {
      "bufferView": 10,
      "componentType": 5126,
      "count": 408,
      "max": [
        0.006675011944025755,
        0.0007281442522071302,
        0.003513696603477001
      ],
      "min": [
        -0.008927416987717152,
        -0.0007281444850377738,
        -0.0008134215604513884
      ],
      "type": "VEC3"
    },
    {
      "bufferView": 11,
      "componentType": 5123,
      "count": 1206,
      "max": [
        407
      ],
      "min": [
        0
      ],
      "type": "SCALAR"
    }
  ],
  "materials": [
    {
      "pbrMetallicRoughness": {
        "baseColorFactor": [
          0.08228270712149792,
          0.08228270712149792,
          0.08228270712149792,
          1
        ],
        "metallicFactor": 0.400000005960464,
        "roughnessFactor": 0.415087103843689
      },
      "name": "Grey"
    },
    {
      "pbrMetallicRoughness": {
        "baseColorFactor": [
          0.0232786145061255,
          0.0232786145061255,
          0.0232786145061255,
          1
        ],
        "metallicFactor": 0.400000005960464,
        "roughnessFactor": 0.415087103843689
      },
      "name": "Black"
    },
    {
      "pbrMetallicRoughness": {
        "baseColorFactor": [
          0.366021871566772,
          0.366021871566772,
          0.366021871566772,
          1
        ],
        "metallicFactor": 0.400000005960464,
        "roughnessFactor": 0.415087103843689
      },
      "name": "White"
    },
    {
      "pbrMetallicRoughness": {
        "baseColorFactor": [
          0.492138117551804,
          0.169017240405083,
          0.0228924620896578,
          1
        ],
        "metallicFactor": 0.400000005960464,
        "roughnessFactor": 0.415087103843689
      },
      "name": "Main"
    }
  ],
  "meshes": [
    {
      "primitives": [
        {
          "mode": 4,
          "attributes": {
            "NORMAL": 0,
            "POSITION": 1
          },
          "indices": 2,
          "material": 0
        }
      ]
    },
    {
      "primitives": [
        {
          "mode": 4,
          "attributes": {
            "NORMAL": 3,
            "POSITION": 4
          },
          "indices": 5,
          "material": 1
        }
      ]
    },
    {
      "primitives": [
        {
          "mode": 4,
          "attributes": {
            "NORMAL": 6,
            "POSITION": 7
          },
          "indices": 8,
          "material": 2
        }
      ]
    },
    {
      "primitives": [
        {
          "mode": 4,
          "attributes": {
            "NORMAL": 9,
            "POSITION": 10
          },
          "indices": 11,
          "material": 3
        }
      ]
    }
  ]
}